<svg width="28" height="28" viewBox="0 0 28 28" fill="none" xmlns="http://www.w3.org/2000/svg">
<path d="M10.0599 18.701C10.2571 18.8403 10.4829 18.9339 10.7207 18.9752C10.9586 19.0165 11.2027 19.0043 11.4353 18.9396C11.6679 18.8749 11.8832 18.7592 12.0656 18.6011C12.248 18.4429 12.3929 18.2461 12.4899 18.025L13.2599 15.685C13.4474 15.1221 13.7633 14.6106 14.1826 14.1909C14.602 13.7713 15.1132 13.4549 15.6759 13.267L17.9139 12.54C18.2317 12.4287 18.5066 12.2206 18.6999 11.945C18.8488 11.7357 18.9458 11.4939 18.9829 11.2397C19.0199 10.9855 18.996 10.7261 18.9131 10.483C18.8301 10.2399 18.6906 10.0199 18.5059 9.84136C18.3212 9.66279 18.0967 9.5307 17.8509 9.456L15.6359 8.736C15.0728 8.5492 14.5609 8.23379 14.1408 7.81478C13.7208 7.39577 13.4041 6.88467 13.2159 6.322L12.4889 4.085C12.377 3.76812 12.1695 3.49381 11.8949 3.3C11.6186 3.1095 11.291 3.00748 10.9554 3.00748C10.6198 3.00748 10.2922 3.1095 10.0159 3.3C9.73689 3.49707 9.52697 3.77696 9.41591 4.1L8.67991 6.365C8.49236 6.91317 8.18247 7.41145 7.77375 7.82207C7.36503 8.2327 6.8682 8.54489 6.32091 8.735L4.08091 9.461C3.76217 9.57367 3.48647 9.78289 3.29218 10.0596C3.09789 10.3362 2.99466 10.6666 2.99686 11.0046C2.99906 11.3427 3.10658 11.6717 3.30446 11.9458C3.50234 12.2199 3.78073 12.4255 4.10091 12.534L6.31691 13.254C7.03547 13.4949 7.66711 13.9422 8.13291 14.54C8.39891 14.883 8.60391 15.268 8.73891 15.68L9.46691 17.914C9.57891 18.232 9.78691 18.507 10.0619 18.701H10.0599ZM19.8039 24.781C20.0074 24.9248 20.2507 25.0017 20.4999 25.001C20.7474 25.0018 20.9891 24.926 21.1919 24.784C21.4002 24.6361 21.5563 24.4261 21.6379 24.184L22.0099 23.041C22.0885 22.8037 22.2214 22.5879 22.3979 22.4108C22.5744 22.2338 22.7898 22.1003 23.0269 22.021L24.1929 21.643C24.4282 21.5594 24.632 21.4053 24.7764 21.2016C24.9208 20.998 24.9989 20.7547 24.9999 20.505C24.9999 20.2489 24.918 19.9996 24.7661 19.7934C24.6143 19.5872 24.4005 19.435 24.1559 19.359L23.0119 18.989C22.7745 18.9103 22.5586 18.7773 22.3816 18.6006C22.2045 18.4239 22.0711 18.2083 21.9919 17.971L21.6119 16.808C21.53 16.5706 21.3756 16.365 21.1706 16.2199C20.9656 16.0749 20.7203 15.9979 20.4692 15.9996C20.2181 16.0014 19.9738 16.0819 19.7709 16.2298C19.568 16.3777 19.4165 16.5855 19.3379 16.824L18.9639 17.97C18.8873 18.2042 18.7579 18.4177 18.5857 18.594C18.4136 18.7703 18.2032 18.9048 17.9709 18.987L16.8049 19.365C16.5695 19.4486 16.3656 19.6029 16.2212 19.8068C16.0767 20.0107 15.9987 20.2541 15.9979 20.504C15.9982 20.7561 16.0778 21.0017 16.2255 21.206C16.3733 21.4102 16.5816 21.5628 16.8209 21.642L17.9649 22.014C18.203 22.093 18.4193 22.2267 18.5964 22.4043C18.7736 22.582 18.9066 22.7987 18.9849 23.037L19.3639 24.2C19.4466 24.435 19.6004 24.6374 19.8039 24.781Z" fill="#94EEC3"/>
</svg>
